<?xml version="1.0" encoding="UTF-8" standalone="no"?>
<svg
   xmlns:dc="http://purl.org/dc/elements/1.1/"
   xmlns:cc="http://creativecommons.org/ns#"
   xmlns:rdf="http://www.w3.org/1999/02/22-rdf-syntax-ns#"
   xmlns:svg="http://www.w3.org/2000/svg"
   xmlns="http://www.w3.org/2000/svg"
   viewBox="0 0 1637.9067 510.35999"
   height="510.35999"
   width="1637.9067"
   xml:space="preserve"
   id="svg2"
   version="1.1"><metadata
     id="metadata8"><rdf:RDF><cc:Work
         rdf:about=""><dc:format>image/svg+xml</dc:format><dc:type
           rdf:resource="http://purl.org/dc/dcmitype/StillImage" /></cc:Work></rdf:RDF></metadata><defs
     id="defs6" /><g
     transform="matrix(1.3333333,0,0,-1.3333333,0,510.36)"
     id="g10"><g
       transform="scale(0.1)"
       id="g12"><path
         id="path14"
         style="fill:#565353;fill-opacity:1;fill-rule:nonzero;stroke:none"
         d="M 5276.19,3278.43 H 5712.3 V 2399.9 h 872.31 v 878.53 h 436.18 V 1103.91 H 6584.61 V 2057.2 H 5712.3 v -953.29 h -436.11 v 2174.52" /><path
         id="path16"
         style="fill:#565353;fill-opacity:1;fill-rule:nonzero;stroke:none"
         d="m 8600.1,2879.66 c -137.1,59.19 -289.7,93.48 -442.39,93.48 -149.51,0 -342.7,-65.43 -342.7,-302.24 0,-376.92 953.28,-218.02 953.28,-947.01 0,-476.68 -376.89,-657.33 -816.19,-657.33 -236.74,0 -342.7,31.14 -557.67,84.09 l 40.53,392.52 c 149.54,-80.99 320.89,-133.94 492.25,-133.94 165.11,0 386.25,84.12 386.25,280.37 0,414.34 -953.29,242.98 -953.29,962.64 0,485.98 376.96,663.57 760.16,663.57 186.92,0 361.36,-24.93 520.23,-77.88 l -40.46,-358.27" /><path
         id="path18"
         style="fill:#908e79;fill-opacity:1;fill-rule:nonzero;stroke:none"
         d="m 1482.22,1106.11 h 1284.62 v 2221.8 z" /><path
         id="path20"
         style="fill:#565353;fill-opacity:1;fill-rule:nonzero;stroke:none"
         d="M 524.199,1106.42 2083.16,3827.68 h 727.98 L 1252.15,1106.42 H 524.199" /><path
         id="path22"
         style="fill:#565353;fill-opacity:1;fill-rule:nonzero;stroke:none"
         d="m 3325.66,3277.07 h 435.69 V 2343.4 l 784.26,933.67 h 535.34 L 4187.73,2253.14 5118.26,1104.72 H 4548.72 L 3767.57,2113.1 h -6.22 V 1104.72 h -435.69 v 2172.35" /><path
         id="path24"
         style="fill:#908e79;fill-opacity:1;fill-rule:nonzero;stroke:none"
         d="M 0,1106.34 1255.65,3278.66 H 1564.9 L 309.246,1106.34 H 0" /><path
         id="path26"
         style="fill:#565353;fill-opacity:1;fill-rule:nonzero;stroke:none"
         d="M 3322.09,658.23 H 3526 V 616.742 H 3366.48 V 439.301 h 151.65 V 397.809 H 3366.48 V 158.852 h -44.39 V 658.23" /><path
         id="path28"
         style="fill:#565353;fill-opacity:1;fill-rule:nonzero;stroke:none"
         d="m 3604,668.98 h 50.09 V 604.539 H 3604 Z m 4.28,-145.25 h 41.53 V 158.852 h -41.53 V 523.73" /><path
         id="path30"
         style="fill:#565353;fill-opacity:1;fill-rule:nonzero;stroke:none"
         d="m 3754.24,695.441 h 41.48 V 158.852 h -41.48 v 536.589" /><path
         id="path32"
         style="fill:#565353;fill-opacity:1;fill-rule:nonzero;stroke:none"
         d="m 3900.18,695.441 h 41.5 V 158.852 h -41.5 v 536.589" /><path
         id="path34"
         style="fill:#565353;fill-opacity:1;fill-rule:nonzero;stroke:none"
         d="m 4041.85,668.98 h 50.09 v -64.441 h -50.09 z m 4.28,-145.25 h 41.5 V 158.852 h -41.5 V 523.73" /><path
         id="path36"
         style="fill:#565353;fill-opacity:1;fill-rule:nonzero;stroke:none"
         d="m 4188.51,410.68 c 0,37.941 -2.14,75.14 -2.86,113.05 h 38.65 c 1.4,-16.449 2.14,-27.16 2.89,-53.66 h 1.39 c 8.59,15.75 32.18,58.66 93,58.66 100.9,0 100.9,-100.871 100.9,-125.179 V 158.852 h -41.5 V 404.98 c 0,25.032 0,85.122 -67.99,85.122 -50.77,0 -82.95,-47.922 -82.95,-104.461 V 158.852 h -41.53 V 410.68" /><path
         id="path38"
         style="fill:#565353;fill-opacity:1;fill-rule:nonzero;stroke:none"
         d="m 4623.5,528.77 c 45.85,0 74.44,-20.758 95.86,-58.7 h 1.46 v 53.66 h 38.65 c -1.43,-31.468 -2.89,-63.671 -2.89,-120.91 V 167.441 c 0,-103.0699 -39.33,-167.4292812 -136.64,-167.4292812 -39.36,0 -57.94,5.7304712 -103.75,20.0273812 l 2.85,46.5195 c 35.09,-20.0273 76.58,-27.918 100.19,-27.918 90.15,0 95.85,83.0004 95.85,120.2114 v 50.078 h -1.39 c -21.49,-36.481 -48.65,-55.09 -92.29,-55.09 -91.63,0 -120.93,104.43 -120.93,173.832 0,50.808 4.28,201.098 123.03,201.098 m 5.03,-336.29 c 68.69,0 89.43,60.809 89.43,153.102 0,74.418 -19.34,144.52 -90.15,144.52 -82.98,0 -82.98,-118.75 -82.98,-148.793 0,-84.469 21.45,-148.829 83.7,-148.829" /><path
         id="path40"
         style="fill:#565353;fill-opacity:1;fill-rule:nonzero;stroke:none"
         d="m 5244.55,240.43 c 0,-27.231 2.14,-54.391 4.28,-81.578 h -37.17 l -2.89,52.23 h -1.42 c -25.04,-40.062 -55.08,-57.242 -102.32,-57.242 -56.51,0 -101.56,46.492 -101.56,105.89 0,116.59 123.73,118.75 175.99,118.75 h 26.46 c 0,45.801 0,111.622 -75.82,111.622 -48.67,0 -87.32,-34.352 -91.59,-37.903 l -6.42,44.332 c 34.34,18.61 60.07,32.199 100.15,32.199 112.31,0 112.31,-94.41 112.31,-120.898 z m -38.63,102.3 c -85.85,0 -158.11,0 -158.11,-83 0,-30.781 22.89,-67.289 67.23,-67.289 19.3,0 90.88,7.891 90.88,107.348 v 42.941" /><path
         id="path42"
         style="fill:#565353;fill-opacity:1;fill-rule:nonzero;stroke:none"
         d="m 5340.42,410.68 c 0,37.941 -2.13,75.14 -2.85,113.05 h 38.64 c 1.42,-16.449 2.1,-27.16 2.81,-53.66 h 1.43 c 8.59,15.75 32.23,58.66 93.05,58.66 100.85,0 100.85,-100.871 100.85,-125.179 V 158.852 h -41.49 V 404.98 c 0,25.032 0,85.122 -67.95,85.122 -50.8,0 -83,-47.922 -83,-104.461 V 158.852 h -41.49 V 410.68" /><path
         id="path44"
         style="fill:#565353;fill-opacity:1;fill-rule:nonzero;stroke:none"
         d="m 5908.48,279.789 c 0,-57.269 1.43,-89.5 2.89,-120.937 h -38.65 v 50.078 h -1.43 c -27.16,-34.36 -50.06,-55.09 -95.85,-55.09 -118.79,0 -123.07,150.262 -123.07,201.058 0,69.411 29.3,173.872 120.89,173.872 46.52,0 73.69,-18.668 92.29,-52.231 h 1.46 v 218.902 h 41.47 z M 5779.72,192.48 c 70.83,0 90.15,70.102 90.15,144.512 0,48.649 0,153.11 -89.47,153.11 -62.21,0 -83.72,-64.372 -83.72,-148.793 0,-30.079 0,-148.829 83.04,-148.829" /><path
         id="path46"
         style="fill:#565353;fill-opacity:1;fill-rule:nonzero;stroke:none"
         d="m 6183.24,658.23 h 93.72 c 93.74,0 152.38,-40.031 152.38,-140.941 0,-108.039 -75.12,-140.969 -139.52,-140.969 h -62.21 V 158.852 h -44.37 z m 44.37,-240.39 h 45.04 c 65.86,0 109.5,22.191 109.5,99.449 0,99.492 -74.42,99.492 -115.9,99.492 h -38.64 V 417.84" /><path
         id="path48"
         style="fill:#565353;fill-opacity:1;fill-rule:nonzero;stroke:none"
         d="m 6701.36,240.43 c 0,-27.231 2.12,-54.391 4.24,-81.578 h -37.2 l -2.86,52.23 h -1.46 c -25,-40.062 -55.04,-57.242 -102.27,-57.242 -56.5,0 -101.6,46.492 -101.6,105.89 0,116.59 123.79,118.75 176.02,118.75 h 26.46 c 0,45.801 0,111.622 -75.84,111.622 -48.65,0 -87.31,-34.352 -91.59,-37.903 l -6.4,44.332 c 34.36,18.61 60.05,32.199 100.15,32.199 112.35,0 112.35,-94.41 112.35,-120.898 z m -38.67,102.3 c -85.85,0 -158.11,0 -158.11,-83 0,-30.781 22.91,-67.289 67.25,-67.289 19.3,0 90.86,7.891 90.86,107.348 v 42.941" /><path
         id="path50"
         style="fill:#565353;fill-opacity:1;fill-rule:nonzero;stroke:none"
         d="m 6994.64,468.648 c -16.42,13.633 -44.34,18.602 -65.79,18.602 -55.85,0 -106.65,-38.629 -106.65,-135.23 0,-133.778 73.75,-156.661 113.08,-156.661 16.45,0 49.35,4.973 61.52,19.27 l 3.61,-47.188 c -17.91,-7.89 -45.1,-13.601 -70.83,-13.601 -78,0 -151.68,60.121 -151.68,186.039 0,111.59 49.34,188.851 150.95,188.851 29.31,0 50.8,-5.73 67.95,-12.898 l -2.16,-47.184" /><path
         id="path52"
         style="fill:#565353;fill-opacity:1;fill-rule:nonzero;stroke:none"
         d="m 7063.35,695.441 h 41.52 v -318.39 l 138.05,146.679 h 52.96 L 7141.35,362.031 7310.21,158.852 h -55.85 l -148.1,185.308 h -1.39 V 158.852 h -41.52 v 536.589" /><path
         id="path54"
         style="fill:#565353;fill-opacity:1;fill-rule:nonzero;stroke:none"
         d="m 7588.5,240.43 c 0,-27.231 2.19,-54.391 4.28,-81.578 h -37.18 l -2.92,52.23 h -1.39 c -25.04,-40.062 -55.11,-57.242 -102.3,-57.242 -56.54,0 -101.58,46.492 -101.58,105.89 0,116.59 123.76,118.75 175.99,118.75 h 26.43 c 0,45.801 0,111.622 -75.81,111.622 -48.68,0 -87.31,-34.352 -91.62,-37.903 l -6.4,44.332 c 34.35,18.61 60.09,32.199 100.15,32.199 112.35,0 112.35,-94.41 112.35,-120.898 z m -38.67,102.3 c -85.82,0 -158.11,0 -158.11,-83 0,-30.781 22.91,-67.289 67.25,-67.289 19.33,0 90.86,7.891 90.86,107.348 v 42.941" /><path
         id="path56"
         style="fill:#565353;fill-opacity:1;fill-rule:nonzero;stroke:none"
         d="m 7788.07,528.77 c 45.82,0 74.44,-20.758 95.86,-58.7 h 1.46 v 53.66 h 38.64 c -1.4,-31.468 -2.85,-63.671 -2.85,-120.91 V 167.441 c 0,-103.0699 -39.4,-167.4292812 -136.7,-167.4292812 -39.33,0 -57.96,5.7304712 -103.73,20.0273812 l 2.86,46.5195 c 35.08,-20.0273 76.6,-27.918 100.18,-27.918 90.17,0 95.9,83.0004 95.9,120.2114 v 50.078 h -1.46 c -21.46,-36.481 -48.65,-55.09 -92.29,-55.09 -91.59,0 -120.91,104.43 -120.91,173.832 0,50.808 4.32,201.098 123.04,201.098 m 5.03,-336.29 c 68.71,0 89.44,60.809 89.44,153.102 0,74.418 -19.33,144.52 -90.16,144.52 -82.97,0 -82.97,-118.75 -82.97,-148.793 0,-84.469 21.45,-148.829 83.69,-148.829" /><path
         id="path58"
         style="fill:#565353;fill-opacity:1;fill-rule:nonzero;stroke:none"
         d="M 8014.89,668.98 H 8065 v -64.441 h -50.11 z m 4.31,-145.25 h 41.49 V 158.852 H 8019.2 V 523.73" /><path
         id="path60"
         style="fill:#565353;fill-opacity:1;fill-rule:nonzero;stroke:none"
         d="m 8161.56,410.68 c 0,37.941 -2.15,75.14 -2.81,113.05 h 38.59 c 1.46,-16.449 2.16,-27.16 2.86,-53.66 h 1.45 c 8.56,15.75 32.17,58.66 92.99,58.66 100.88,0 100.88,-100.871 100.88,-125.179 V 158.852 h -41.49 V 404.98 c 0,25.032 0,85.122 -67.98,85.122 -50.77,0 -83,-47.922 -83,-104.461 V 158.852 h -41.49 V 410.68" /><path
         id="path62"
         style="fill:#565353;fill-opacity:1;fill-rule:nonzero;stroke:none"
         d="m 8596.58,528.77 c 45.79,0 74.38,-20.758 95.87,-58.7 h 1.46 v 53.66 h 38.6 c -1.43,-31.468 -2.85,-63.671 -2.85,-120.91 V 167.441 c 0,-103.0699 -39.37,-167.4292812 -136.63,-167.4292812 -39.4,0 -57.97,5.7304712 -103.8,20.0273812 l 2.89,46.5195 c 35.05,-20.0273 76.57,-27.918 100.18,-27.918 90.13,0 95.84,83.0004 95.84,120.2114 v 50.078 h -1.4 c -21.49,-36.481 -48.68,-55.09 -92.32,-55.09 -91.59,0 -120.91,104.43 -120.91,173.832 0,50.808 4.32,201.098 123.07,201.098 m 5,-336.29 c 68.71,0 89.41,60.809 89.41,153.102 0,74.418 -19.3,144.52 -90.1,144.52 -83.01,0 -83.01,-118.75 -83.01,-148.793 0,-84.469 21.43,-148.829 83.7,-148.829" /><path
         id="path64"
         style="fill:#565353;fill-opacity:1;fill-rule:nonzero;stroke:none"
         d="m 8947.19,377.781 h 357.75 v -38.633 h -357.75 v 38.633" /><path
         id="path66"
         style="fill:#565353;fill-opacity:1;fill-rule:nonzero;stroke:none"
         d="m 9524.6,658.23 h 47.23 l 89.4,-446.449 h 1.46 l 103.76,446.449 h 60.82 l 93.71,-446.449 h 1.43 l 97.29,446.449 h 44.3 L 9948.88,158.852 h -55.78 l -98.03,449.308 h -1.46 L 9687.72,158.852 H 9635.5 L 9524.6,658.23" /><path
         id="path68"
         style="fill:#565353;fill-opacity:1;fill-rule:nonzero;stroke:none"
         d="m 10089.2,341.309 c 0,91.55 30.1,187.421 136.7,187.421 106.6,0 136.6,-95.871 136.6,-187.421 0,-91.598 -30,-187.469 -136.6,-187.469 -106.6,0 -136.7,95.871 -136.7,187.469 m 229,0 c 0,29.339 0,148.793 -92.3,148.793 -92.3,0 -92.3,-119.454 -92.3,-148.793 0,-29.348 0,-148.829 92.3,-148.829 92.3,0 92.3,119.481 92.3,148.829" /><path
         id="path70"
         style="fill:#565353;fill-opacity:1;fill-rule:nonzero;stroke:none"
         d="m 10440.5,410.68 c 0,37.941 -2.2,75.14 -2.9,113.05 h 38.7 c 0.7,-21.46 2.1,-42.91 2.8,-57.968 h 1.5 c 26.5,52.258 57.2,62.968 97.3,62.968 v -44.371 c -65.8,0 -95.9,-28.578 -95.9,-95.867 v -229.64 h -41.5 V 410.68" /><path
         id="path72"
         style="fill:#565353;fill-opacity:1;fill-rule:nonzero;stroke:none"
         d="m 10643,695.441 h 41.5 V 158.852 h -41.5 v 536.589" /><path
         id="path74"
         style="fill:#565353;fill-opacity:1;fill-rule:nonzero;stroke:none"
         d="m 11022.2,279.789 c 0,-57.269 1.4,-89.5 2.9,-120.937 h -38.7 v 50.078 h -1.4 c -27.2,-34.36 -50.1,-55.09 -95.9,-55.09 -118.7,0 -123,150.262 -123,201.058 0,69.411 29.3,173.872 120.9,173.872 46.5,0 73.7,-18.668 92.3,-52.231 h 1.4 v 218.902 h 41.5 z m -128.8,-87.309 c 70.8,0 90.2,70.102 90.2,144.512 0,48.649 0,153.11 -89.5,153.11 -62.2,0 -83.7,-64.372 -83.7,-148.793 0,-30.079 0,-148.829 83,-148.829" /><path
         id="path76"
         style="fill:#565353;fill-opacity:1;fill-rule:nonzero;stroke:none"
         d="m 11075.8,523.73 h 44.4 l 76.6,-320.539 h 1.4 l 73.7,320.539 h 52.9 l 80.2,-320.539 h 1.4 l 75.9,320.539 h 41.5 l -95.2,-364.878 h -51.5 l -78.7,317.687 h -1.4 l -74.5,-317.687 h -48.6 l -98.1,364.878" /><path
         id="path78"
         style="fill:#565353;fill-opacity:1;fill-rule:nonzero;stroke:none"
         d="m 11579.5,668.98 h 50.1 v -64.441 h -50.1 z m 4.3,-145.25 h 41.6 V 158.852 h -41.6 V 523.73" /><path
         id="path80"
         style="fill:#565353;fill-opacity:1;fill-rule:nonzero;stroke:none"
         d="m 11963,279.789 c 0,-57.269 1.5,-89.5 2.9,-120.937 h -38.6 v 50.078 h -1.5 c -27.2,-34.36 -50,-55.09 -95.9,-55.09 -118.7,0 -123,150.262 -123,201.058 0,69.411 29.4,173.872 120.9,173.872 46.5,0 73.7,-18.668 92.3,-52.231 h 1.4 v 218.902 h 41.5 z m -128.8,-87.309 c 70.9,0 90.2,70.102 90.2,144.512 0,48.649 0,153.11 -89.4,153.11 -62.3,0 -83.8,-64.372 -83.8,-148.793 0,-30.079 0,-148.829 83,-148.829" /><path
         id="path82"
         style="fill:#565353;fill-opacity:1;fill-rule:nonzero;stroke:none"
         d="m 12082.6,327.711 c 0,-135.231 86.4,-135.231 102.9,-135.231 23.7,0 58,11.442 78.7,30.071 l 2.2,-47.981 c -17.2,-9.289 -41.5,-20.73 -85.2,-20.73 -143,0 -143,150.949 -143,187.469 0,137.382 67.9,187.421 129.4,187.421 106,0 116.7,-112.281 116.7,-201.019 z m 157.3,38.598 c 0,96.632 -40.7,123.793 -74.4,123.793 -56.5,0 -82.9,-76.543 -82.9,-123.793 h 157.3" /></g></g></svg>